<svg width="60" height="52" viewBox="0 0 60 52" fill="none" xmlns="http://www.w3.org/2000/svg">
<path d="M55.7143 15.8954C55.7143 14.0873 55.4743 12.4914 54.9944 11.1074C54.5145 9.7235 53.9007 8.62416 53.1529 7.80943C52.4051 6.9947 51.4955 6.33064 50.4241 5.81725C49.3527 5.30385 48.3036 4.95787 47.2768 4.7793C46.25 4.60073 45.1562 4.51144 43.9955 4.51144C42.8348 4.51144 41.5848 4.79604 40.2455 5.36523C38.9062 5.93443 37.673 6.64872 36.5458 7.50809C35.4185 8.36747 34.4531 9.17104 33.6496 9.91881C32.846 10.6666 32.1763 11.353 31.6406 11.978C31.2388 12.469 30.692 12.7146 30 12.7146C29.308 12.7146 28.7612 12.469 28.3594 11.978C27.8237 11.353 27.154 10.6666 26.3504 9.91881C25.5469 9.17104 24.5815 8.36747 23.4542 7.50809C22.327 6.64872 21.0938 5.93443 19.7545 5.36523C18.4152 4.79604 17.1652 4.51144 16.0045 4.51144C14.8437 4.51144 13.75 4.60073 12.7232 4.7793C11.6964 4.95787 10.6473 5.30385 9.57589 5.81725C8.50446 6.33064 7.59487 6.9947 6.8471 7.80943C6.09933 8.62416 5.48549 9.7235 5.00558 11.1074C4.52567 12.4914 4.28571 14.0873 4.28571 15.8954C4.28571 19.6454 6.37277 23.6074 10.5469 27.7815L30 46.5315L49.4196 27.815C53.6161 23.6186 55.7143 19.6454 55.7143 15.8954ZM60 15.8954C60 20.8284 57.4442 25.8507 52.3326 30.9623L31.4732 51.0516C31.0714 51.4534 30.5804 51.6543 30 51.6543C29.4196 51.6543 28.9286 51.4534 28.5268 51.0516L7.63393 30.8954C7.41071 30.7168 7.10379 30.4266 6.71317 30.0248C6.32254 29.623 5.70312 28.892 4.85491 27.8318C4.0067 26.7715 3.24777 25.6833 2.57812 24.5672C1.90848 23.4512 1.31138 22.1007 0.78683 20.5159C0.262277 18.9311 0 17.3909 0 15.8954C0 10.9847 1.41741 7.14537 4.25223 4.37751C7.08705 1.60966 11.0045 0.225727 16.0045 0.225727C17.3884 0.225727 18.8002 0.465683 20.24 0.945595C21.6797 1.4255 23.019 2.07283 24.2578 2.88756C25.4967 3.70229 26.5625 4.4668 27.4554 5.18108C28.3482 5.89537 29.1964 6.6543 30 7.45787C30.8036 6.6543 31.6518 5.89537 32.5446 5.18108C33.4375 4.4668 34.5033 3.70229 35.7422 2.88756C36.981 2.07283 38.3203 1.4255 39.76 0.945595C41.1998 0.465683 42.6116 0.225727 43.9955 0.225727C48.9955 0.225727 52.9129 1.60966 55.7478 4.37751C58.5826 7.14537 60 10.9847 60 15.8954Z" fill="white"/>
</svg>
